<svg width="40" height="42" viewBox="0 0 40 42" fill="none" xmlns="http://www.w3.org/2000/svg" xmlns:xlink="http://www.w3.org/1999/xlink">
<path d="M19.295,40.289C29.824,40.289 38.391,31.316 38.391,20.289C38.391,9.261 29.824,0.289 19.295,0.289C8.766,0.289 0.2,9.261 0.2,20.289C0.2,31.316 8.766,40.289 19.295,40.289Z" fill="#10A37F" fill-opacity="0.3"/>
<path d="M10.941,30.289C11.122,30.289 11.301,30.246 11.464,30.161L22.686,24.419C22.924,24.297 23.117,24.095 23.234,23.845L28.72,12.088C28.83,11.854 28.867,11.59 28.826,11.333C28.785,11.076 28.669,10.839 28.493,10.654C28.317,10.47 28.09,10.348 27.845,10.306C27.6,10.263 27.348,10.302 27.124,10.416L15.898,16.163C15.66,16.285 15.467,16.487 15.351,16.736L9.868,28.49C9.779,28.681 9.737,28.892 9.748,29.104C9.758,29.316 9.82,29.522 9.927,29.702C10.034,29.882 10.184,30.03 10.361,30.133C10.539,30.236 10.738,30.289 10.941,30.289ZM17.315,18.22L25.05,14.261L21.27,22.363L13.538,26.319L17.315,18.22Z" fill="#23C69E"/>
</svg>
