<svg width="38" height="44" viewBox="0 0 38 44" fill="none" xmlns="http://www.w3.org/2000/svg" xmlns:xlink="http://www.w3.org/1999/xlink">
<path d="M12.859,6.75C9.475,7.426 6.926,9.975 6.25,13.359C5.574,9.975 3.025,7.426 -0.359,6.75C3.025,6.074 5.574,3.525 6.25,0.141C6.926,3.525 9.475,6.074 12.859,6.75ZM29.759,6.259C26.884,4.345 26.112,4.345 23.241,6.259C25.155,3.384 25.155,2.612 23.241,-0.259C26.116,1.655 26.887,1.655 29.759,-0.259C27.845,2.612 27.845,3.387 29.759,6.259ZM14.759,26.259C11.884,24.345 11.112,24.345 8.241,26.259C10.155,23.384 10.155,22.612 8.241,19.741C11.116,21.655 11.887,21.655 14.759,19.741C12.845,22.612 12.845,23.387 14.759,26.259ZM36.151,17.901C33.596,16.197 32.901,16.197 30.35,17.901C32.054,15.346 32.054,14.651 30.35,12.1C32.905,13.804 33.6,13.804 36.151,12.1C34.447,14.655 34.447,15.345 36.151,17.901Z" fill="#EEEEEE"/>
<path d="M28.875,10L27.625,10C26.244,10 25.125,11.119 25.125,12.5L25.125,40C25.125,41.38 26.244,42.5 27.625,42.5L28.875,42.5C30.256,42.5 31.375,41.38 31.375,40L31.375,12.5C31.375,11.119 30.256,10 28.875,10Z" transform="rotate(-90 28.25 26.25)" fill="#EEEEEE"/>
<path d="M18.344,13.844L19.594,13.844C20.257,13.844 20.893,14.107 21.361,14.576C21.83,15.045 22.094,15.681 22.094,16.344L22.094,20.094L15.844,20.094L15.844,16.344C15.844,15.681 16.107,15.045 16.576,14.576C17.045,14.107 17.681,13.844 18.344,13.844Z" transform="rotate(-90 18.969 16.969)" fill="#EEEEEE"/>
</svg>
