<svg width="24" height="24" viewBox="0 0 24 24" fill="none" xmlns="http://www.w3.org/2000/svg" xmlns:xlink="http://www.w3.org/1999/xlink">
<path d="M9.243,9.719L7.846,14.378C7.727,14.774 7.836,15.204 8.128,15.497C8.342,15.71 8.629,15.826 8.924,15.826C9.032,15.826 9.14,15.811 9.247,15.779L13.906,14.382C14.084,14.328 14.247,14.232 14.378,14.1L22.92,5.558C23.131,5.347 23.25,5.06 23.25,4.762C23.25,4.464 23.131,4.178 22.92,3.967L19.658,0.705C19.218,0.265 18.507,0.265 18.067,0.705L9.525,9.247C9.393,9.379 9.297,9.541 9.243,9.719ZM11.317,10.637L18.862,3.091L20.534,4.762L12.988,12.308L10.601,13.024L11.317,10.637Z" fill="#9B9DA6"/>
<path d="M22.125,10.875C21.504,10.875 21,11.379 21,12L21,19.5C21,20.534 20.159,21.375 19.125,21.375L4.125,21.375C3.091,21.375 2.25,20.534 2.25,19.5L2.25,4.5C2.25,3.466 3.091,2.625 4.125,2.625L11.625,2.625C12.246,2.625 12.75,2.121 12.75,1.5C12.75,0.879 12.246,0.375 11.625,0.375L4.125,0.375C1.85,0.375 0,2.226 0,4.5L0,19.5C0,21.774 1.85,23.625 4.125,23.625L19.125,23.625C21.4,23.625 23.25,21.774 23.25,19.5L23.25,12C23.25,11.379 22.746,10.875 22.125,10.875Z" fill="#9B9DA6"/>
</svg>
