<svg width="14" height="8" viewBox="0 0 14 8" fill="none" xmlns="http://www.w3.org/2000/svg" xmlns:xlink="http://www.w3.org/1999/xlink">
<path d="M-0.566,6.434C-0.878,6.747 -0.878,7.253 -0.566,7.566C-0.253,7.878 0.253,7.878 0.566,7.566L-0.566,6.434ZM6,1L6.566,0.434C6.253,0.122 5.747,0.122 5.434,0.434L6,1ZM11.434,7.566C11.747,7.878 12.253,7.878 12.566,7.566C12.878,7.253 12.878,6.747 12.566,6.434L11.434,7.566ZM0.566,7.566L6.566,1.566L5.434,0.434L-0.566,6.434L0.566,7.566ZM5.434,1.566L11.434,7.566L12.566,6.434L6.566,0.434L5.434,1.566Z" transform="rotate(180 6 4)" fill="#9B9DA6"/>
</svg>
