<svg width="36" height="24" viewBox="0 0 36 24" fill="none" xmlns="http://www.w3.org/2000/svg" xmlns:xlink="http://www.w3.org/1999/xlink">
<path d="M6.8,10.1C5.972,10.1 5.3,10.772 5.3,11.6C5.3,12.428 5.972,13.1 6.8,13.1L6.8,10.1ZM28.4,13.1C29.228,13.1 29.9,12.428 29.9,11.6C29.9,10.772 29.228,10.1 28.4,10.1L28.4,13.1ZM2,0.5C1.172,0.5 0.5,1.172 0.5,2C0.5,2.828 1.172,3.5 2,3.5L2,0.5ZM33.2,3.5C34.028,3.5 34.7,2.828 34.7,2C34.7,1.172 34.028,0.5 33.2,0.5L33.2,3.5ZM14,19.7C13.172,19.7 12.5,20.372 12.5,21.2C12.5,22.028 13.172,22.7 14,22.7L14,19.7ZM21.2,22.7C22.028,22.7 22.7,22.028 22.7,21.2C22.7,20.372 22.028,19.7 21.2,19.7L21.2,22.7ZM6.8,13.1L28.4,13.1L28.4,10.1L6.8,10.1L6.8,13.1ZM2,3.5L33.2,3.5L33.2,0.5L2,0.5L2,3.5ZM14,22.7L21.2,22.7L21.2,19.7L14,19.7L14,22.7Z" fill="#10A37F"/>
</svg>
