<svg width="42" height="42" viewBox="0 0 42 42" fill="none" xmlns="http://www.w3.org/2000/svg" xmlns:xlink="http://www.w3.org/1999/xlink">
<path d="M26.525,1.013L14.403,1.013C13.015,1.01 11.651,1.386 10.447,2.101C9.244,2.816 8.244,3.847 7.548,5.088L1.515,15.944C0.824,17.181 0.461,18.584 0.461,20.013C0.461,21.442 0.824,22.845 1.515,24.082L7.571,34.938C8.267,36.179 9.267,37.21 10.47,37.925C11.673,38.641 13.038,39.016 14.426,39.013L26.525,39.013C27.914,39.018 29.279,38.644 30.483,37.928C31.687,37.213 32.686,36.181 33.38,34.938L39.447,24.082C40.133,22.843 40.493,21.441 40.493,20.013C40.493,18.586 40.133,17.183 39.447,15.944L33.346,5.088C32.652,3.845 31.652,2.813 30.449,2.098C29.245,1.382 27.88,1.008 26.491,1.013L26.525,1.013Z" transform="rotate(180 20.477 20.013)" fill="#10A37F" fill-opacity="0.3"/>
<path d="M20.471,27.412C24.434,27.412 27.646,24.091 27.646,19.994C27.646,15.897 24.434,12.576 20.471,12.576C16.508,12.576 13.296,15.897 13.296,19.994C13.296,24.091 16.508,27.412 20.471,27.412Z" transform="rotate(180 20.471 19.994)" fill="#23C69E"/>
</svg>
