<svg width="28" height="28" viewBox="0 0 28 28" fill="none" xmlns="http://www.w3.org/2000/svg" xmlns:xlink="http://www.w3.org/1999/xlink">
<path d="M20.8,12C20.8,16.86 16.86,20.8 12,20.8L12,23.2C18.186,23.2 23.2,18.186 23.2,12L20.8,12ZM12,20.8C7.14,20.8 3.2,16.86 3.2,12L0.8,12C0.8,18.186 5.814,23.2 12,23.2L12,20.8ZM3.2,12C3.2,7.14 7.14,3.2 12,3.2L12,0.8C5.814,0.8 0.8,5.814 0.8,12L3.2,12ZM12,3.2C16.86,3.2 20.8,7.14 20.8,12L23.2,12C23.2,5.814 18.186,0.8 12,0.8L12,3.2Z" fill="#575B65"/>
<path d="M25.151,26.849C25.62,27.317 26.38,27.317 26.849,26.849C27.317,26.38 27.317,25.62 26.849,25.151L25.151,26.849ZM19.915,18.218C19.447,17.749 18.687,17.749 18.218,18.218C17.749,18.687 17.749,19.447 18.218,19.915L19.915,18.218ZM26.849,25.151L19.915,18.218L18.218,19.915L25.151,26.849L26.849,25.151Z" fill="#575B65"/>
</svg>
