<svg width="64" height="64" viewBox="0 0 64 64" fill="none" xmlns="http://www.w3.org/2000/svg" xmlns:xlink="http://www.w3.org/1999/xlink">
<path d="M46.994,0L17.006,0C6.552,0 0,7.399 0,17.872L0,46.127C0,56.601 6.522,64 17.006,64L46.994,64C57.478,64 64,56.601 64,46.127L64,17.872C64,7.399 57.478,0 46.994,0Z" clip-rule="evenodd" fill-rule="evenodd" fill="#1E1F22"/>
<path d="M41.038,37.66C40.646,37.271 40.013,37.273 39.624,37.665C39.235,38.057 39.237,38.69 39.628,39.079L41.038,37.66ZM45.295,44.709C45.687,45.099 46.32,45.097 46.709,44.705C47.099,44.313 47.097,43.68 46.705,43.291L45.295,44.709ZM42.57,30.716C42.57,36.075 38.196,40.431 32.785,40.431L32.785,42.431C39.288,42.431 44.57,37.192 44.57,30.716L42.57,30.716ZM32.785,40.431C27.375,40.431 23,36.075 23,30.716L21,30.716C21,37.192 26.283,42.431 32.785,42.431L32.785,40.431ZM23,30.716C23,25.356 27.375,21 32.785,21L32.785,19C26.283,19 21,24.239 21,30.716L23,30.716ZM32.785,21C38.196,21 42.57,25.356 42.57,30.716L44.57,30.716C44.57,24.239 39.288,19 32.785,19L32.785,21ZM39.628,39.079L45.295,44.709L46.705,43.291L41.038,37.66L39.628,39.079Z" fill="#D9D9D9"/>
</svg>
