<svg width="42" height="42" viewBox="0 0 42 42" fill="none" xmlns="http://www.w3.org/2000/svg" xmlns:xlink="http://www.w3.org/1999/xlink">
<path d="M35.803,19.763L30.634,14.513C30.474,14.35 30.284,14.221 30.075,14.134C29.865,14.046 29.641,14 29.415,14.001C29.189,14.001 28.965,14.046 28.756,14.134C28.546,14.222 28.357,14.351 28.197,14.514C28.037,14.676 27.91,14.869 27.823,15.082C27.737,15.294 27.692,15.522 27.692,15.752C27.692,15.981 27.737,16.209 27.824,16.421C27.91,16.634 28.037,16.827 28.197,16.989L30.425,19.25L20.8,19.25C20.343,19.25 19.905,19.434 19.582,19.763C19.259,20.091 19.077,20.536 19.077,21C19.077,21.464 19.259,21.909 19.582,22.237C19.905,22.566 20.343,22.75 20.8,22.75L30.425,22.75L28.197,25.013C28.033,25.174 27.902,25.367 27.811,25.581C27.721,25.794 27.673,26.024 27.671,26.256C27.669,26.489 27.713,26.719 27.8,26.934C27.886,27.149 28.014,27.345 28.176,27.509C28.338,27.673 28.53,27.803 28.742,27.891C28.954,27.979 29.181,28.023 29.409,28.021C29.638,28.019 29.864,27.971 30.075,27.879C30.285,27.788 30.475,27.654 30.634,27.487L35.803,22.237C35.963,22.075 36.09,21.882 36.177,21.669C36.264,21.457 36.308,21.229 36.308,20.999C36.308,20.769 36.264,20.541 36.177,20.329C36.09,20.117 35.963,19.924 35.803,19.761L35.803,19.763Z" fill="#23C69E"/>
<path d="M20.8,22.75C20.343,22.75 19.905,22.566 19.582,22.237C19.259,21.909 19.077,21.464 19.077,21C19.077,20.536 19.259,20.091 19.582,19.763C19.905,19.434 20.343,19.25 20.8,19.25L27.692,19.25L27.692,8.75C27.691,7.358 27.146,6.023 26.177,5.039C25.208,4.055 23.894,3.501 22.523,3.5L8.739,3.5C7.368,3.501 6.054,4.055 5.085,5.039C4.116,6.023 3.571,7.358 3.569,8.75L3.569,33.25C3.571,34.642 4.116,35.977 5.085,36.961C6.054,37.945 7.368,38.499 8.739,38.5L22.523,38.5C23.894,38.499 25.208,37.945 26.177,36.961C27.146,35.977 27.691,34.642 27.692,33.25L27.692,22.75L20.8,22.75Z" fill="#15715C" fill-opacity="0.6"/>
</svg>
