<svg width="40" height="40" viewBox="0 0 40 40" fill="none" xmlns="http://www.w3.org/2000/svg" xmlns:xlink="http://www.w3.org/1999/xlink">
<path d="M34,20C34,27.732 27.732,34 20,34L20,36C28.837,36 36,28.837 36,20L34,20ZM20,34C12.268,34 6,27.732 6,20L4,20C4,28.837 11.163,36 20,36L20,34ZM6,20C6,12.268 12.268,6 20,6L20,4C11.163,4 4,11.163 4,20L6,20ZM20,6C27.732,6 34,12.268 34,20L36,20C36,11.163 28.837,4 20,4L20,6Z" fill="#868FA7"/>
<path d="M25.631,28C25.907,28.479 26.519,28.642 26.997,28.366C27.475,28.089 27.639,27.477 27.362,26.999L25.631,28ZM12.638,26.999C12.361,27.477 12.525,28.089 13.003,28.365C13.481,28.642 14.093,28.478 14.369,28L12.638,26.999ZM27.362,26.999C26.616,25.708 25.542,24.635 24.25,23.89L23.25,25.622C24.239,26.192 25.06,27.013 25.631,28L27.362,26.999ZM24.25,23.89C22.958,23.144 21.492,22.752 20,22.752L20,24.752C21.141,24.752 22.262,25.052 23.25,25.622L24.25,23.89ZM20,22.752C18.508,22.752 17.042,23.144 15.75,23.89L16.75,25.622C17.738,25.052 18.859,24.752 20,24.752L20,22.752ZM15.75,23.89C14.458,24.635 13.385,25.708 12.638,26.999L14.369,28C14.94,27.012 15.761,26.192 16.75,25.622L15.75,23.89Z" fill="#868FA7"/>
<path d="M14.375,18.75C15.411,18.75 16.25,17.911 16.25,16.875C16.25,15.839 15.411,15 14.375,15C13.339,15 12.5,15.839 12.5,16.875C12.5,17.911 13.339,18.75 14.375,18.75Z" fill="#868FA7"/>
<path d="M25.625,18.75C26.661,18.75 27.5,17.911 27.5,16.875C27.5,15.839 26.661,15 25.625,15C24.589,15 23.75,15.839 23.75,16.875C23.75,17.911 24.589,18.75 25.625,18.75Z" fill="#868FA7"/>
</svg>
