<svg width="40" height="40" viewBox="0 0 40 40" fill="none" xmlns="http://www.w3.org/2000/svg" xmlns:xlink="http://www.w3.org/1999/xlink">
<path d="M20,36.411C29.063,36.411 36.411,29.063 36.411,20C36.411,10.937 29.063,3.589 20,3.589C10.937,3.589 3.589,10.937 3.589,20C3.589,29.063 10.937,36.411 20,36.411Z" fill="#FFBE55"/>
<path d="M20,32.059C15.012,32.059 11.101,29.283 9.539,24.633C9.337,24.033 9.661,23.382 10.261,23.181C10.861,22.979 11.512,23.302 11.713,23.903C12.306,25.666 14.298,29.766 20,29.766C22.161,29.766 24.009,29.175 25.494,28.009C26.78,26.998 27.744,25.583 28.282,23.916C28.476,23.313 29.123,22.982 29.726,23.176C30.329,23.371 30.66,24.017 30.465,24.62C29.786,26.723 28.557,28.519 26.911,29.812C25.013,31.303 22.688,32.059 20,32.059Z" fill="#0B4870"/>
<path d="M12.976,17.451C14.074,17.451 14.965,16.56 14.965,15.462C14.965,14.363 14.074,13.472 12.976,13.472C11.877,13.472 10.987,14.363 10.987,15.462C10.987,16.56 11.877,17.451 12.976,17.451Z" fill="#0B4870"/>
<path d="M27.024,17.451C28.123,17.451 29.013,16.56 29.013,15.462C29.013,14.363 28.123,13.472 27.024,13.472C25.926,13.472 25.035,14.363 25.035,15.462C25.035,16.56 25.926,17.451 27.024,17.451Z" fill="#0B4870"/>
</svg>
