<svg width="18" height="26" viewBox="0 0 18 26" fill="none" xmlns="http://www.w3.org/2000/svg" xmlns:xlink="http://www.w3.org/1999/xlink">
<path d="M5.034,0.773C4.509,1.308 4.517,2.369 4.535,4.49C4.57,8.733 3.88,10.86 1.075,13.711C-1.73,16.563 7.457,15.78 7.457,15.78L8.939,25.58L8.939,25.679L8.947,25.63L8.952,25.668L8.952,25.592L10.435,15.792C10.435,15.792 19.621,16.574 16.816,13.723C14.011,10.871 13.322,8.744 13.357,4.502C13.374,2.38 13.383,1.32 12.857,0.785C12.331,0.25 11.271,0.242 9.149,0.224L8.952,0.224L8.952,0.213L8.742,0.213C6.621,0.23 5.56,0.239 5.034,0.773Z" clip-rule="evenodd" fill-rule="evenodd" transform="rotate(90 8.946 12.946)" fill="#FEC553"/>
</svg>
