<svg width="16" height="16" viewBox="0 0 16 16" fill="none" xmlns="http://www.w3.org/2000/svg" xmlns:xlink="http://www.w3.org/1999/xlink">
<path d="M10.4,5.6L14.4,5.6C14.612,5.6 14.816,5.516 14.966,5.366C15.116,5.216 15.2,5.012 15.2,4.8L15.2,4.753C15.202,4.721 15.202,4.688 15.2,4.655L15.2,0.8C15.2,0.588 15.116,0.384 14.966,0.234C14.816,0.084 14.612,0 14.4,0C14.188,0 13.984,0.084 13.834,0.234C13.684,0.384 13.6,0.588 13.6,0.8L13.6,2.287C13.202,1.896 12.762,1.547 12.287,1.245C11.087,0.484 9.707,0.056 8.287,0.005C6.868,-0.046 5.46,0.282 4.209,0.955C2.958,1.628 1.909,2.622 1.17,3.835C0.43,5.048 0.027,6.436 0.001,7.856C-0.024,9.277 0.329,10.678 1.024,11.917C1.72,13.156 2.732,14.187 3.958,14.904C5.184,15.622 6.579,16 8,16C10.122,16 12.156,15.158 13.657,13.657C15.157,12.157 16,10.122 16,8C16,7.788 15.916,7.585 15.766,7.435C15.616,7.284 15.412,7.2 15.2,7.2C14.988,7.2 14.784,7.284 14.634,7.435C14.484,7.585 14.4,7.788 14.4,8C14.401,9.566 13.829,11.078 12.79,12.251C11.751,13.423 10.319,14.173 8.764,14.36C7.209,14.547 5.64,14.158 4.353,13.265C3.066,12.373 2.151,11.04 1.781,9.518C1.411,7.996 1.612,6.392 2.345,5.008C3.079,3.625 4.294,2.558 5.761,2.01C7.228,1.462 8.845,1.471 10.306,2.036C11.366,2.445 12.29,3.126 12.991,4L10.4,4C10.188,4 9.984,4.084 9.834,4.234C9.684,4.384 9.6,4.588 9.6,4.8C9.6,5.012 9.684,5.216 9.834,5.366C9.984,5.516 10.188,5.6 10.4,5.6Z" clip-rule="evenodd" fill-rule="evenodd" fill="#868FA7"/>
</svg>
