<svg width="34" height="34" viewBox="0 0 34 34" fill="none" xmlns="http://www.w3.org/2000/svg" xmlns:xlink="http://www.w3.org/1999/xlink">
<path d="M5.127,2.226L4.691,3.125L4.691,3.125L5.127,2.226ZM31.638,15.079L32.074,14.179L32.074,14.179L31.638,15.079ZM31.638,18.988L32.074,19.888L32.074,19.888L31.638,18.988ZM5.127,31.842L4.691,30.942L4.691,30.942L5.127,31.842ZM2.19,29.017L3.106,29.418L3.106,29.418L2.19,29.017ZM7.051,17.904L6.135,17.503L6.135,17.503L7.051,17.904ZM7.051,16.163L7.967,15.762L7.967,15.762L7.051,16.163ZM2.19,5.051L1.273,5.451L1.273,5.451L2.19,5.051ZM32.512,18.034C33.065,18.034 33.512,17.586 33.512,17.034C33.512,16.481 33.065,16.034 32.512,16.034L32.512,18.034ZM7.233,16.034C6.681,16.034 6.233,16.481 6.233,17.034C6.233,17.586 6.681,18.034 7.233,18.034L7.233,16.034ZM4.691,3.125L31.202,15.979L32.074,14.179L5.563,1.326L4.691,3.125ZM31.202,18.088L4.691,30.942L5.563,32.742L32.074,19.888L31.202,18.088ZM3.106,29.418L7.967,18.305L6.135,17.503L1.273,28.616L3.106,29.418ZM7.967,15.762L3.106,4.65L1.273,5.451L6.135,16.564L7.967,15.762ZM7.967,18.305C8.322,17.495 8.322,16.573 7.967,15.762L6.135,16.564C6.266,16.863 6.266,17.204 6.135,17.503L7.967,18.305ZM4.691,30.942C3.711,31.417 2.669,30.415 3.106,29.418L1.273,28.616C0.092,31.316 2.911,34.028 5.563,32.742L4.691,30.942ZM31.202,15.979C32.083,16.406 32.083,17.661 31.202,18.088L32.074,19.888C34.458,18.732 34.458,15.335 32.074,14.179L31.202,15.979ZM5.563,1.326C2.911,0.04 0.092,2.751 1.273,5.451L3.106,4.65C2.669,3.652 3.711,2.65 4.691,3.125L5.563,1.326ZM32.512,16.034L7.233,16.034L7.233,18.034L32.512,18.034L32.512,16.034Z" fill="#ABABAB"/>
</svg>
