<svg width="24" height="24" viewBox="0 0 24 24" fill="none" xmlns="http://www.w3.org/2000/svg" xmlns:xlink="http://www.w3.org/1999/xlink">
<path d="M2.714,11.418C2.714,11.094 2.589,10.784 2.368,10.554C2.146,10.325 1.846,10.197 1.532,10.197L0.351,10.197C0.037,10.197 -0.263,10.325 -0.485,10.554C-0.706,10.784 -0.831,11.094 -0.831,11.418C-0.831,11.742 -0.706,12.053 -0.485,12.282C-0.263,12.511 0.037,12.64 0.351,12.64L1.532,12.64C1.846,12.64 2.146,12.511 2.368,12.282C2.589,12.053 2.714,11.742 2.714,11.418ZM3.47,17.527L2.631,18.395C2.411,18.624 2.288,18.934 2.288,19.256C2.288,19.579 2.411,19.889 2.631,20.118C2.853,20.345 3.152,20.473 3.464,20.473C3.776,20.473 4.076,20.345 4.297,20.118L5.136,19.25C5.33,19.016 5.431,18.716 5.419,18.408C5.408,18.101 5.285,17.809 5.074,17.592C4.864,17.374 4.582,17.246 4.284,17.235C3.987,17.223 3.696,17.327 3.47,17.527ZM10.985,2.866C11.298,2.866 11.599,2.737 11.82,2.508C12.042,2.279 12.166,1.968 12.166,1.644L12.166,0.422C12.166,0.098 12.042,-0.213 11.82,-0.442C11.599,-0.671 11.298,-0.8 10.985,-0.8C10.671,-0.8 10.371,-0.671 10.149,-0.442C9.928,-0.213 9.803,0.098 9.803,0.422L9.803,1.644C9.803,1.968 9.928,2.279 10.149,2.508C10.371,2.737 10.671,2.866 10.985,2.866ZM17.672,5.725C17.982,5.723 18.279,5.596 18.499,5.37L19.338,4.503C19.462,4.393 19.562,4.259 19.633,4.107C19.704,3.955 19.744,3.79 19.75,3.622C19.757,3.454 19.729,3.286 19.67,3.129C19.61,2.972 19.52,2.83 19.405,2.711C19.29,2.592 19.152,2.499 19.001,2.437C18.849,2.376 18.687,2.347 18.524,2.354C18.361,2.36 18.202,2.402 18.055,2.475C17.908,2.548 17.778,2.652 17.672,2.78L16.892,3.648C16.672,3.877 16.549,4.186 16.549,4.509C16.549,4.832 16.672,5.141 16.892,5.37C17.101,5.585 17.379,5.711 17.672,5.725ZM3.494,5.37C3.714,5.596 4.011,5.723 4.321,5.725C4.476,5.726 4.63,5.695 4.774,5.634C4.918,5.573 5.049,5.484 5.16,5.37C5.38,5.141 5.503,4.832 5.503,4.509C5.503,4.186 5.38,3.877 5.16,3.648L4.321,2.78C4.211,2.665 4.081,2.574 3.938,2.511C3.794,2.449 3.64,2.416 3.484,2.415C3.329,2.414 3.174,2.444 3.03,2.505C2.885,2.565 2.754,2.655 2.643,2.768C2.532,2.881 2.444,3.016 2.383,3.164C2.323,3.312 2.291,3.472 2.29,3.633C2.287,3.958 2.41,4.271 2.631,4.503L3.494,5.37ZM21.619,10.197L20.437,10.197C20.124,10.197 19.823,10.325 19.602,10.554C19.38,10.784 19.256,11.094 19.256,11.418C19.256,11.742 19.38,12.053 19.602,12.282C19.823,12.511 20.124,12.64 20.437,12.64L21.619,12.64C21.932,12.64 22.233,12.511 22.454,12.282C22.676,12.053 22.8,11.742 22.8,11.418C22.8,11.094 22.676,10.784 22.454,10.554C22.233,10.325 21.932,10.197 21.619,10.197ZM18.499,17.527C18.275,17.398 18.016,17.348 17.761,17.385C17.507,17.422 17.271,17.543 17.089,17.731C16.908,17.919 16.79,18.163 16.755,18.426C16.719,18.689 16.768,18.957 16.892,19.189L17.731,20.057C17.953,20.284 18.252,20.412 18.564,20.412C18.876,20.412 19.176,20.284 19.397,20.057C19.617,19.828 19.741,19.518 19.741,19.195C19.741,18.872 19.617,18.563 19.397,18.334L18.499,17.527ZM10.985,4.698C9.699,4.698 8.443,5.092 7.374,5.831C6.306,6.569 5.473,7.619 4.981,8.847C4.489,10.075 4.36,11.426 4.611,12.729C4.862,14.033 5.481,15.23 6.39,16.17C7.298,17.11 8.456,17.75 9.717,18.009C10.977,18.269 12.284,18.135 13.472,17.627C14.659,17.118 15.674,16.257 16.388,15.152C17.102,14.047 17.483,12.747 17.483,11.418C17.48,9.637 16.794,7.93 15.576,6.67C14.358,5.411 12.707,4.702 10.985,4.698ZM10.985,15.695C10.167,15.695 9.367,15.444 8.687,14.974C8.007,14.504 7.477,13.836 7.164,13.055C6.851,12.273 6.769,11.414 6.929,10.584C7.088,9.755 7.482,8.993 8.061,8.395C8.639,7.796 9.376,7.389 10.178,7.224C10.98,7.059 11.812,7.144 12.567,7.468C13.323,7.791 13.969,8.339 14.423,9.043C14.878,9.746 15.12,10.573 15.12,11.418C15.12,12.553 14.684,13.64 13.909,14.442C13.133,15.244 12.081,15.695 10.985,15.695ZM10.985,19.971C10.671,19.971 10.371,20.1 10.149,20.329C9.928,20.558 9.803,20.869 9.803,21.193L9.803,22.415C9.803,22.739 9.928,23.05 10.149,23.279C10.371,23.508 10.671,23.637 10.985,23.637C11.298,23.637 11.599,23.508 11.82,23.279C12.042,23.05 12.166,22.739 12.166,22.415L12.166,21.193C12.166,20.869 12.042,20.558 11.82,20.329C11.599,20.1 11.298,19.971 10.985,19.971Z" fill="#ABABAB"/>
</svg>
