<svg width="18" height="28" viewBox="0 0 18 28" fill="none" xmlns="http://www.w3.org/2000/svg" xmlns:xlink="http://www.w3.org/1999/xlink">
<path d="M14.857,26L14.857,27L14.857,27L14.857,26ZM14.286,25.839L14.804,24.984L14.804,24.984L14.286,25.839ZM8,22.033L8.518,21.177L8,20.864L7.482,21.177L8,22.033ZM1.714,25.839L1.196,24.984L1.196,24.984L1.714,25.839ZM0,24.8L-1,24.8L-1,24.8L0,24.8ZM0,5.6L-1,5.599L-1,5.6L0,5.6ZM3.429,2L3.429,1L3.428,1L3.429,2ZM12.571,2L12.572,1L12.571,1L12.571,2ZM16,5.6L17,5.6L17,5.599L16,5.6ZM14.857,25C14.842,25 14.824,24.996 14.804,24.984L13.767,26.694C14.095,26.893 14.471,27 14.857,27L14.857,25ZM14.804,24.984L8.518,21.177L7.482,22.888L13.768,26.695L14.804,24.984ZM7.482,21.177L1.196,24.984L2.232,26.695L8.518,22.888L7.482,21.177ZM1.196,24.984C1.176,24.996 1.158,25 1.143,25L1.143,27C1.529,27 1.905,26.893 2.233,26.694L1.196,24.984ZM1.143,25C1.127,25 1.109,24.996 1.09,24.984L0.053,26.694C0.381,26.893 0.757,27 1.143,27L1.143,25ZM1.09,24.984C1.07,24.972 1.047,24.951 1.029,24.918L-0.723,25.882C-0.541,26.214 -0.274,26.496 0.053,26.694L1.09,24.984ZM1.029,24.918C1.011,24.885 1,24.844 1,24.8L-1,24.8C-1,25.177 -0.906,25.55 -0.723,25.882L1.029,24.918ZM1,24.8L1,5.6L-1,5.6L-1,24.8L1,24.8ZM1,5.601C1.001,4.896 1.268,4.229 1.729,3.745L0.281,2.366C-0.543,3.231 -0.999,4.395 -1,5.599L1,5.601ZM1.729,3.745C2.189,3.262 2.802,3.001 3.43,3L3.428,1C2.237,1.001 1.107,1.499 0.281,2.366L1.729,3.745ZM3.429,3L12.571,3L12.571,1L3.429,1L3.429,3ZM12.57,3C13.198,3.001 13.811,3.262 14.271,3.745L15.719,2.366C14.893,1.499 13.763,1.001 12.572,1L12.57,3ZM14.271,3.745C14.732,4.229 14.999,4.896 15,5.601L17,5.599C16.999,4.395 16.543,3.231 15.719,2.366L14.271,3.745ZM15,5.6L15,24.8L17,24.8L17,5.6L15,5.6ZM15,24.8C15,24.868 14.974,24.925 14.941,24.959L16.389,26.338C16.785,25.922 17,25.368 17,24.8L15,24.8ZM14.941,24.959C14.91,24.991 14.879,25 14.857,25L14.857,27C15.442,27 15.992,26.756 16.389,26.338L14.941,24.959Z" fill="#868FA7"/>
</svg>
