<svg width="14" height="16" viewBox="0 0 14 16" fill="none" xmlns="http://www.w3.org/2000/svg" xmlns:xlink="http://www.w3.org/1999/xlink">
<path d="M10.316,0L1.474,0C0.659,0 0,0.651 0,1.455L0,11.636L1.474,11.636L1.474,1.455L10.316,1.455L10.316,0ZM12.526,2.909L4.421,2.909C3.607,2.909 2.947,3.56 2.947,4.364L2.947,14.545C2.947,15.349 3.607,16 4.421,16L12.526,16C13.341,16 14,15.349 14,14.545L14,4.364C14,3.56 13.341,2.909 12.526,2.909ZM12.526,14.545L4.421,14.545L4.421,4.364L12.526,4.364L12.526,14.545Z" fill="#868FA7"/>
</svg>
