<svg width="16" height="18" viewBox="0 0 16 18" fill="none" xmlns="http://www.w3.org/2000/svg" xmlns:xlink="http://www.w3.org/1999/xlink">
<path d="M11.419,12.654C9.553,12.68 7.751,11.944 6.406,10.605C5.061,9.266 4.281,7.432 4.236,5.503C4.236,4.556 4.422,3.619 4.782,2.748C5.142,1.877 5.669,1.091 6.331,0.437C4.369,0.637 2.547,1.579 1.214,3.081C-0.119,4.584 -0.869,6.542 -0.892,8.581C-0.845,10.785 0.046,12.88 1.584,14.407C3.123,15.934 5.184,16.767 7.316,16.726C8.903,16.74 10.461,16.279 11.8,15.397C13.139,14.515 14.203,13.251 14.862,11.758C13.803,12.344 12.621,12.651 11.419,12.654Z" fill="#FFFFFF"/>
</svg>
