<svg width="20" height="20" viewBox="0 0 20 20" fill="none" xmlns="http://www.w3.org/2000/svg" xmlns:xlink="http://www.w3.org/1999/xlink">
<path d="M20,9.444C20.004,10.911 19.661,12.358 19,13.667C18.216,15.235 17.011,16.555 15.519,17.477C14.028,18.399 12.309,18.888 10.556,18.889C9.089,18.893 7.642,18.55 6.333,17.889L0,20L2.111,13.667C1.45,12.358 1.107,10.911 1.111,9.444C1.112,7.691 1.601,5.972 2.523,4.481C3.445,2.989 4.765,1.784 6.333,1C7.642,0.339 9.089,-0.004 10.556,0L11.111,0C13.427,0.128 15.614,1.105 17.255,2.745C18.895,4.386 19.872,6.573 20,8.889L20,9.444Z" fill="#23C69E"/>
</svg>
