<svg width="26" height="38" viewBox="0 0 26 38" fill="none" xmlns="http://www.w3.org/2000/svg" xmlns:xlink="http://www.w3.org/1999/xlink">
<path d="M12.48,26.743C14.465,26.741 16.369,25.895 17.773,24.391C19.176,22.887 19.966,20.848 19.968,18.721L19.968,8.023C19.968,5.896 19.179,3.855 17.775,2.35C16.371,0.846 14.466,0.001 12.48,0.001C10.494,0.001 8.589,0.846 7.185,2.35C5.781,3.855 4.992,5.896 4.992,8.023L4.992,18.721C4.994,20.848 5.784,22.887 7.187,24.391C8.591,25.895 10.495,26.741 12.48,26.743ZM7.488,8.023C7.488,6.605 8.014,5.244 8.95,4.241C9.886,3.238 11.156,2.675 12.48,2.675C13.804,2.675 15.074,3.238 16.01,4.241C16.946,5.244 17.472,6.605 17.472,8.023L17.472,18.721C17.472,20.139 16.946,21.5 16.01,22.503C15.074,23.506 13.804,24.069 12.48,24.069C11.156,24.069 9.886,23.506 8.95,22.503C8.014,21.5 7.488,20.139 7.488,18.721L7.488,8.023ZM13.728,32.025L13.728,36.103C13.728,36.458 13.597,36.798 13.362,37.049C13.128,37.3 12.811,37.441 12.48,37.441C12.149,37.441 11.832,37.3 11.598,37.049C11.363,36.798 11.232,36.458 11.232,36.103L11.232,32.025C8.155,31.69 5.304,30.144 3.229,27.686C1.154,25.229 0.004,22.034 0,18.721C0,18.366 0.131,18.026 0.366,17.775C0.6,17.524 0.917,17.383 1.248,17.383C1.579,17.383 1.896,17.524 2.13,17.775C2.365,18.026 2.496,18.366 2.496,18.721C2.496,21.558 3.548,24.279 5.42,26.285C7.293,28.291 9.832,29.418 12.48,29.418C15.128,29.418 17.667,28.291 19.54,26.285C21.412,24.279 22.464,21.558 22.464,18.721C22.464,18.366 22.595,18.026 22.83,17.775C23.064,17.524 23.381,17.383 23.712,17.383C24.043,17.383 24.36,17.524 24.594,17.775C24.829,18.026 24.96,18.366 24.96,18.721C24.956,22.034 23.806,25.229 21.731,27.686C19.656,30.144 16.805,31.69 13.728,32.025Z" fill="#ABABAB"/>
</svg>
