<svg width="28" height="30" viewBox="0 0 28 30" fill="none" xmlns="http://www.w3.org/2000/svg" xmlns:xlink="http://www.w3.org/1999/xlink">
<path d="M26.8,14.278L25.6,14.278L25.6,14.281L26.8,14.278ZM25.52,19.767L24.445,19.232L24.443,19.237L25.52,19.767ZM14.711,26.556L14.711,25.356L14.708,25.356L14.711,26.556ZM9.307,25.256L9.854,24.188C9.566,24.04 9.229,24.015 8.922,24.119L9.307,25.256ZM1.2,28L0.06,27.626C-0.082,28.058 0.032,28.533 0.355,28.852C0.678,29.172 1.154,29.282 1.585,29.137L1.2,28ZM3.902,19.767L5.042,20.141C5.141,19.841 5.117,19.515 4.977,19.232L3.902,19.767ZM2.622,14.278L3.822,14.281L3.822,14.278L2.622,14.278ZM9.307,3.3L9.85,4.37L9.854,4.368L9.307,3.3ZM14.711,2L14.708,3.2L14.711,3.2L14.711,2ZM15.422,2L15.489,0.802C15.467,0.801 15.445,0.8 15.422,0.8L15.422,2ZM26.8,13.556L28,13.556C28,13.534 27.999,13.512 27.998,13.49L26.8,13.556ZM25.6,14.281C25.604,16.001 25.209,17.698 24.446,19.232L26.594,20.301C27.524,18.432 28.005,16.367 28,14.275L25.6,14.281ZM24.443,19.237C23.537,21.078 22.146,22.624 20.426,23.704L21.703,25.736C23.802,24.418 25.496,22.534 26.597,20.297L24.443,19.237ZM20.426,23.704C18.708,24.783 16.728,25.355 14.711,25.356L14.712,27.756C17.183,27.755 19.604,27.055 21.703,25.736L20.426,23.704ZM14.708,25.356C13.023,25.36 11.36,24.96 9.854,24.188L8.759,26.323C10.604,27.27 12.645,27.761 14.714,27.756L14.708,25.356ZM8.922,24.119L0.815,26.863L1.585,29.137L9.691,26.392L8.922,24.119ZM2.34,28.374L5.042,20.141L2.762,19.392L0.06,27.626L2.34,28.374ZM4.977,19.232C4.214,17.698 3.818,16.001 3.822,14.281L1.422,14.275C1.417,16.367 1.898,18.432 2.828,20.301L4.977,19.232ZM3.822,14.278C3.823,12.218 4.389,10.199 5.454,8.449L3.404,7.201C2.109,9.328 1.423,11.779 1.422,14.277L3.822,14.278ZM5.454,8.449C6.52,6.699 8.043,5.287 9.85,4.37L8.763,2.23C6.555,3.351 4.7,5.073 3.404,7.201L5.454,8.449ZM9.854,4.368C11.36,3.595 13.023,3.196 14.708,3.2L14.714,0.8C12.645,0.795 10.604,1.286 8.759,2.232L9.854,4.368ZM14.711,3.2L15.422,3.2L15.422,0.8L14.711,0.8L14.711,3.2ZM15.355,3.198C18.019,3.347 20.539,4.49 22.431,6.411L24.141,4.727C21.834,2.384 18.754,0.985 15.489,0.802L15.355,3.198ZM22.431,6.411C24.323,8.333 25.454,10.9 25.602,13.621L27.998,13.49C27.819,10.19 26.447,7.069 24.141,4.727L22.431,6.411ZM25.6,13.556L25.6,14.278L28,14.278L28,13.556L25.6,13.556Z" fill="#EEEEEE"/>
</svg>
