<svg width="12" height="18" viewBox="0 0 12 18" fill="none" xmlns="http://www.w3.org/2000/svg" xmlns:xlink="http://www.w3.org/1999/xlink">
<path d="M11.143,18C10.992,18 10.845,17.958 10.714,17.879L6,15.025L1.286,17.879C1.155,17.958 1.008,18 0.857,18C0.707,18 0.559,17.958 0.429,17.879C0.298,17.8 0.19,17.687 0.115,17.55C0.04,17.413 0,17.258 0,17.1L0,2.7C0.001,1.984 0.272,1.298 0.754,0.792C1.236,0.285 1.89,0.001 2.571,0L9.429,0C10.11,0.001 10.764,0.285 11.246,0.792C11.728,1.298 11.999,1.984 12,2.7L12,17.1C12,17.339 11.91,17.568 11.749,17.736C11.588,17.905 11.37,18 11.143,18Z" fill="#EEEEEE"/>
</svg>
