<svg width="18" height="26" viewBox="0 0 18 26" fill="none" xmlns="http://www.w3.org/2000/svg" xmlns:xlink="http://www.w3.org/1999/xlink">
<path d="M14.857,24L14.857,25L14.857,25L14.857,24ZM14.286,23.839L14.804,22.984L14.804,22.984L14.286,23.839ZM8,20.033L8.518,19.177L8,18.864L7.482,19.177L8,20.033ZM1.714,23.839L1.196,22.984L1.196,22.984L1.714,23.839ZM0,22.8L-1,22.8L-1,22.8L0,22.8ZM0,3.6L-1,3.599L-1,3.6L0,3.6ZM3.429,0L3.429,-1L3.428,-1L3.429,0ZM12.571,0L12.572,-1L12.571,-1L12.571,0ZM16,3.6L17,3.6L17,3.599L16,3.6ZM14.857,23C14.842,23 14.824,22.996 14.804,22.984L13.767,24.694C14.095,24.893 14.471,25 14.857,25L14.857,23ZM14.804,22.984L8.518,19.177L7.482,20.888L13.768,24.695L14.804,22.984ZM7.482,19.177L1.196,22.984L2.232,24.695L8.518,20.888L7.482,19.177ZM1.196,22.984C1.176,22.996 1.158,23 1.143,23L1.143,25C1.529,25 1.905,24.893 2.233,24.694L1.196,22.984ZM1.143,23C1.127,23 1.109,22.996 1.09,22.984L0.053,24.694C0.381,24.893 0.757,25 1.143,25L1.143,23ZM1.09,22.984C1.07,22.972 1.047,22.951 1.029,22.918L-0.723,23.882C-0.541,24.214 -0.274,24.496 0.053,24.694L1.09,22.984ZM1.029,22.918C1.011,22.885 1,22.844 1,22.8L-1,22.8C-1,23.177 -0.906,23.55 -0.723,23.882L1.029,22.918ZM1,22.8L1,3.6L-1,3.6L-1,22.8L1,22.8ZM1,3.601C1.001,2.896 1.268,2.229 1.729,1.745L0.281,0.366C-0.543,1.231 -0.999,2.395 -1,3.599L1,3.601ZM1.729,1.745C2.189,1.262 2.802,1.001 3.43,1L3.428,-1C2.237,-0.999 1.107,-0.501 0.281,0.366L1.729,1.745ZM3.429,1L12.571,1L12.571,-1L3.429,-1L3.429,1ZM12.57,1C13.198,1.001 13.811,1.262 14.271,1.745L15.719,0.366C14.893,-0.501 13.763,-0.999 12.572,-1L12.57,1ZM14.271,1.745C14.732,2.229 14.999,2.896 15,3.601L17,3.599C16.999,2.395 16.543,1.231 15.719,0.366L14.271,1.745ZM15,3.6L15,22.8L17,22.8L17,3.6L15,3.6ZM15,22.8C15,22.868 14.974,22.925 14.941,22.959L16.389,24.338C16.785,23.922 17,23.368 17,22.8L15,22.8ZM14.941,22.959C14.91,22.991 14.879,23 14.857,23L14.857,25C15.442,25 15.992,24.756 16.389,24.338L14.941,22.959Z" fill="#868FA7"/>
</svg>
